<svg xmlns="http://www.w3.org/2000/svg" viewBox="0 0 100 100" width="100%" height="100%">
  <defs>
    <filter id="shadow-ai-web" x="-15%" y="-15%" width="130%" height="130%">
      <feDropShadow dx="0" dy="4" stdDeviation="4.5" flood-color="#0f172a" flood-opacity="0.10" />
      <feDropShadow dx="0" dy="1" stdDeviation="1.5" flood-color="#0f172a" flood-opacity="0.05" />
    </filter>
  </defs>

  <!-- Big White Squircle Tile -->
  <rect x="4" y="4" width="92" height="92" rx="22" fill="#ffffff" filter="url(#shadow-ai-web)" />

  <!-- Upper Wave Sweep (Vibrant Emerald/Teal #0d9488) -->
  <path d="M 21 46 C 22 30 35 18 50 18 C 65 18 78 30 79 46 C 71 41 61 38 50 42 C 39 46 29 47 21 46 Z" fill="#0d9488" />

  <!-- Lower Wave Sweep (Deep Violet/Purple #7c3aed) -->
  <path d="M 21 54 C 29 53 39 54 50 50 C 61 46 71 49 79 54 C 78 70 65 82 50 82 C 35 82 22 70 21 54 Z" fill="#7c3aed" />

  <!-- Big Generative AI Sparkle Star (Upper-Right Accent) -->
  <path d="M 72 16 Q 72 27 61 27 Q 72 27 72 38 Q 72 27 83 27 Q 72 27 72 16 Z" fill="#f59e0b" />
  <circle cx="83" cy="15" r="2.5" fill="#fbbf24" />
  <circle cx="61" cy="40" r="2" fill="#fbbf24" />
</svg>
